<svg width="24" height="24" viewBox="0 0 24 24" fill="none" xmlns="http://www.w3.org/2000/svg">
<path fill-rule="evenodd" clip-rule="evenodd" d="M11.08 2.045C9.20601 2.21 7.35701 2.949 5.80001 4.154C5.36301 4.493 4.49301 5.363 4.15401 5.8C2.35401 8.126 1.64901 10.995 2.17801 13.846C2.46801 15.412 3.13701 16.886 4.15401 18.2C4.49301 18.637 5.36301 19.507 5.80001 19.846C8.24101 21.735 11.253 22.412 14.24 21.741C16.727 21.182 18.992 19.597 20.385 17.44C21.191 16.193 21.668 14.913 21.906 13.36C22.004 12.719 22.004 11.281 21.906 10.64C21.621 8.782 20.97 7.252 19.846 5.8C19.507 5.363 18.637 4.493 18.2 4.154C16.133 2.555 13.646 1.818 11.08 2.045ZM12.832 4.042C14.3718 4.21417 15.831 4.81999 17.04 5.789C17.394 6.075 18.067 6.761 18.326 7.1C19.4036 8.50699 19.9915 10.2278 20 12C19.9915 13.8341 19.3608 15.611 18.211 17.04C17.925 17.394 17.239 18.067 16.9 18.326C15.493 19.4036 13.7722 19.9915 12 20C10.2278 19.9915 8.507 19.4036 7.10001 18.326C6.76101 18.067 6.07501 17.394 5.78901 17.04C4.83302 15.8617 4.23233 14.4355 4.05718 12.9283C3.88204 11.4211 4.1397 9.89515 4.80001 8.529C5.16205 7.75542 5.65572 7.05061 6.25901 6.446C6.90672 5.76251 7.67533 5.20479 8.52601 4.801C9.86342 4.15433 11.3541 3.89157 12.832 4.042ZM11.673 7.063C11.5326 7.11232 11.406 7.19463 11.304 7.303C11.007 7.599 11 7.649 11 9.447V11H9.44701C7.65301 11 7.59901 11.008 7.30601 11.3C7.21035 11.3898 7.1341 11.4982 7.08198 11.6186C7.02986 11.739 7.00297 11.8688 7.00297 12C7.00297 12.1312 7.02986 12.261 7.08198 12.3814C7.1341 12.5018 7.21035 12.6102 7.30601 12.7C7.59901 12.992 7.65301 13 9.44701 13H11V14.573C11 16.37 11.004 16.398 11.306 16.7C11.486 16.879 11.764 17 12 17C12.237 17 12.514 16.88 12.697 16.697C12.993 16.401 13 16.35 13 14.553V13H14.553C16.35 13 16.401 12.993 16.697 12.697C16.88 12.514 17 12.237 17 12C17 11.763 16.88 11.486 16.697 11.303C16.401 11.007 16.35 11 14.553 11H13V9.447C13 7.65 12.993 7.599 12.697 7.303C12.418 7.024 12.067 6.942 11.673 7.063Z" fill="#8B97A7"/>
</svg>
