<svg width="32" height="32" viewBox="0 0 32 32" fill="none" xmlns="http://www.w3.org/2000/svg">
<path fill-rule="evenodd" clip-rule="evenodd" d="M27.0574 6.93869C26.9284 6.96339 26.8029 7.00415 26.6841 7.06002C26.6014 7.10402 23.3174 10.3574 19.3867 14.2894L12.2401 21.44L8.85339 18.056C6.25739 15.4627 5.41072 14.6467 5.22672 14.564C4.54139 14.2547 3.71339 14.6094 3.43872 15.328C3.32806 15.62 3.35206 16.096 3.49339 16.3787C3.61206 16.6174 11.3854 24.388 11.6241 24.508C11.7254 24.5587 11.9547 24.612 12.1334 24.6267C12.7801 24.6787 12.1907 25.224 20.7294 16.6787C29.2747 8.12536 28.6854 8.76402 28.6267 8.11469C28.5947 7.75736 28.4987 7.54669 28.2627 7.31069C28.1088 7.15301 27.9179 7.03637 27.7074 6.97139C27.4968 6.90642 27.2734 6.89517 27.0574 6.93869Z" fill="white"/>
</svg>
