<svg width="10" height="17" viewBox="0 0 10 17" fill="none" xmlns="http://www.w3.org/2000/svg">
<path d="M0 8.05273C0 7.93522 0.0216471 7.82699 0.0649414 7.72803C0.108236 7.62288 0.173177 7.52702 0.259766 7.44043L7.6167 0.241211C7.78369 0.0804036 7.9847 0 8.21973 0C8.38053 0 8.52279 0.0371094 8.64648 0.111328C8.77637 0.185547 8.87842 0.287598 8.95264 0.41748C9.03304 0.541178 9.07324 0.683431 9.07324 0.844238C9.07324 1.07308 8.98975 1.27409 8.82275 1.44727L2.06885 8.05273L8.82275 14.6582C8.98975 14.8314 9.07324 15.0324 9.07324 15.2612C9.07324 15.422 9.03304 15.5643 8.95264 15.688C8.87842 15.8179 8.77637 15.9199 8.64648 15.9941C8.52279 16.0684 8.38053 16.1055 8.21973 16.1055C7.9847 16.1055 7.78369 16.022 7.6167 15.855L0.259766 8.66504C0.173177 8.57845 0.108236 8.48568 0.0649414 8.38672C0.0216471 8.28158 0 8.17025 0 8.05273Z" fill="black"/>
</svg>
