<svg width="24" height="24" viewBox="0 0 24 24" fill="none" xmlns="http://www.w3.org/2000/svg">
<path fill-rule="evenodd" clip-rule="evenodd" d="M11.28 2.024C9.171 2.209 7.301 2.95 5.719 4.225C4.044 5.576 2.811 7.505 2.303 9.571C2.087 10.452 2.026 10.981 2.026 12C2.026 13.019 2.087 13.548 2.303 14.429C3.189 18.036 6.142 20.931 9.76 21.74C10.604 21.929 11.047 21.976 12 21.976C12.953 21.976 13.396 21.929 14.24 21.74C17.858 20.931 20.811 18.036 21.697 14.429C21.91 13.56 21.973 13.016 21.975 12.02C21.976 11.044 21.932 10.616 21.74 9.76C21.282 7.711 20.082 5.735 18.48 4.391C16.656 2.86 14.565 2.07 12.22 2.023C11.9067 2.01407 11.5933 2.0144 11.28 2.024ZM9.483 8.224C9.687 8.284 9.768 8.355 10.85 9.432L12 10.577L13.15 9.432C14.232 8.355 14.313 8.284 14.517 8.224C14.788 8.144 14.852 8.144 15.123 8.224C15.421 8.313 15.687 8.579 15.776 8.877C15.856 9.148 15.856 9.212 15.776 9.483C15.716 9.687 15.645 9.768 14.568 10.85L13.423 12L14.568 13.15C15.645 14.232 15.716 14.313 15.776 14.517C15.856 14.788 15.856 14.852 15.776 15.123C15.7264 15.2757 15.6414 15.4144 15.5279 15.5279C15.4144 15.6414 15.2757 15.7264 15.123 15.776C14.852 15.856 14.788 15.856 14.517 15.776C14.313 15.716 14.232 15.645 13.15 14.568L12 13.423L10.85 14.568C9.768 15.645 9.687 15.716 9.483 15.776C9.212 15.856 9.148 15.856 8.877 15.776C8.72435 15.7264 8.5856 15.6414 8.47211 15.5279C8.35861 15.4144 8.27359 15.2757 8.224 15.123C8.144 14.852 8.144 14.788 8.224 14.517C8.284 14.313 8.355 14.232 9.432 13.15L10.577 12L9.432 10.85C8.355 9.768 8.284 9.687 8.224 9.483C8.144 9.212 8.144 9.147 8.223 8.881C8.31 8.59 8.552 8.338 8.841 8.238C9.111 8.145 9.207 8.143 9.483 8.224Z" fill="#C3CBD5"/>
</svg>
