<svg width="32" height="32" viewBox="0 0 32 32" fill="none" xmlns="http://www.w3.org/2000/svg">
<path fill-rule="evenodd" clip-rule="evenodd" d="M15.2001 2.72534C12.5214 3.02801 10.2227 5.04401 9.5494 7.68001C9.35873 8.42268 9.3334 9.02134 9.3334 12.6667C9.3334 16.312 9.35873 16.9107 9.5494 17.6533C10.0734 19.708 11.6041 21.4293 13.6094 22.2173C15.0641 22.7907 16.9361 22.7907 18.3907 22.2173C19.391 21.8229 20.283 21.196 20.9929 20.3884C21.7029 19.5809 22.2103 18.6159 22.4734 17.5733C22.6387 16.9133 22.6667 16.2107 22.6667 12.6667C22.6667 9.02401 22.6414 8.42534 22.4521 7.68001C21.8641 5.36534 19.9734 3.47468 17.6534 2.88268C16.8514 2.68516 16.0207 2.63189 15.2001 2.72534ZM17.1467 5.49467C18.4334 5.89467 19.4414 6.90801 19.8481 8.21334L19.9734 8.61334V16.72L19.8481 17.12C19.6509 17.763 19.2992 18.348 18.8236 18.8235C18.348 19.2991 17.7631 19.6509 17.1201 19.848C16.5414 20.028 15.4587 20.028 14.8801 19.848C14.237 19.6509 13.6521 19.2991 13.1765 18.8235C12.7009 18.348 12.3492 17.763 12.1521 17.12L12.0267 16.72V8.61334L12.1521 8.21334C12.6081 6.75334 13.8307 5.65201 15.2947 5.38534C15.7294 5.30534 16.7281 5.36401 17.1467 5.49467ZM6.32673 16.0787C5.8374 16.2533 5.44006 16.7907 5.44006 17.276C5.44006 17.5667 5.59206 18.3693 5.7574 18.9533C6.7054 22.3053 9.3814 25.0653 12.7201 26.1347C13.2647 26.3097 13.8219 26.443 14.3867 26.5333L14.6667 26.5707V27.3827C14.6667 28.3573 14.7267 28.5853 15.0747 28.9333C15.3147 29.172 15.6854 29.3333 16.0001 29.3333C16.3161 29.3333 16.6854 29.1733 16.9294 28.9293C17.2681 28.5893 17.3334 28.336 17.3334 27.3547V26.5707L17.6134 26.5333C17.7667 26.5133 18.1334 26.44 18.4267 26.372C20.1033 25.9784 21.6598 25.1851 22.9635 24.0598C24.2671 22.9344 25.2792 21.5105 25.9134 19.9093C26.2454 19.0747 26.5601 17.804 26.5601 17.2987C26.5601 16.4693 25.6547 15.8 24.8747 16.0547C24.2907 16.244 24.0214 16.6293 23.8387 17.536C23.3294 20.0533 21.7321 22.1147 19.4454 23.204C18.9292 23.4462 18.3918 23.6403 17.8401 23.784C17.0801 23.9933 15.8174 24.052 14.9067 23.9213C13.2422 23.6839 11.6938 22.9312 10.4789 21.7687C9.2641 20.6063 8.44386 19.0925 8.1334 17.44C8.02006 16.8307 7.85073 16.4893 7.55473 16.28C7.1534 15.996 6.7454 15.9293 6.32673 16.0787Z" fill="#F2F5F8"/>
</svg>
