<svg width="75" height="68" viewBox="0 0 75 68" fill="none" xmlns="http://www.w3.org/2000/svg">
<path d="M47.8797 7.32968C44.768 5.7108 41.1394 5.43174 37.8332 6.54288L16.0237 12.3867C12.5815 13.0838 9.57855 15.1398 7.69319 18.0976C6.07429 21.2093 5.79521 24.8379 6.9126 28.1674L12.7564 49.9768C13.4535 53.4189 15.5095 56.4219 18.4673 58.3072C21.579 59.9261 25.2076 60.2051 28.5372 59.0877L50.3467 53.2439C53.7655 52.5531 56.7918 50.4908 58.6772 47.533C60.2728 44.4276 60.5752 40.7927 59.4578 37.4632L53.614 15.6538C52.8936 12.2179 50.8376 9.21501 47.8797 7.32968Z" fill="url(#paint0_linear_550_2274)"/>
<g opacity="0.5" filter="url(#filter0_f_550_2274)">
<path d="M36.869 13.476L20.4218 18.0638C14.4559 19.7279 11.8392 23.7683 13.3072 29.0313L18.2794 46.8567C19.7715 52.206 24.0825 54.2396 30.0484 52.5755L46.4956 47.9878C52.5576 46.2969 55.0954 42.3528 53.6033 37.0035L48.6312 19.1782C47.1631 13.9151 42.931 11.7851 36.869 13.476Z" fill="#30AD31"/>
</g>
<foreignObject x="3.01364" y="0.711149" width="88.4603" height="88.4602"><div xmlns="http://www.w3.org/1999/xhtml" style="backdrop-filter:blur(8.6px);clip-path:url(#bgblur_0_550_2274_clip_path);height:100%;width:100%"></div></foreignObject><g data-figma-bg-blur-radius="17.2095">
<mask id="path-3-outside-1_550_2274" maskUnits="userSpaceOnUse" x="19.9402" y="17.6377" width="55" height="55" fill="black">
<rect fill="white" x="19.9402" y="17.6377" width="55" height="55"/>
<path d="M69.8417 22.3173C67.0301 19.7422 63.2989 18.4284 59.5151 18.6649H34.9728C31.1627 18.4284 27.4314 19.7422 24.6198 22.3173C22.0447 25.1289 20.7309 28.8601 20.9674 32.6702V57.2123C20.7309 61.0224 22.0447 64.7536 24.6198 67.5652C27.4314 70.1402 31.1627 71.4541 34.9728 71.2176H59.5151C63.2989 71.4541 67.0564 70.1402 69.868 67.5652C72.4168 64.7536 73.7569 61.0224 73.5205 57.2123V32.6702C73.7307 28.8601 72.4168 25.1289 69.8417 22.3173Z"/>
</mask>
<path d="M69.8417 22.3173C67.0301 19.7422 63.2989 18.4284 59.5151 18.6649H34.9728C31.1627 18.4284 27.4314 19.7422 24.6198 22.3173C22.0447 25.1289 20.7309 28.8601 20.9674 32.6702V57.2123C20.7309 61.0224 22.0447 64.7536 24.6198 67.5652C27.4314 70.1402 31.1627 71.4541 34.9728 71.2176H59.5151C63.2989 71.4541 67.0564 70.1402 69.868 67.5652C72.4168 64.7536 73.7569 61.0224 73.5205 57.2123V32.6702C73.7307 28.8601 72.4168 25.1289 69.8417 22.3173Z" fill="#72DC60" fill-opacity="0.35"/>
<path d="M69.3574 22.8461C69.6495 23.1136 70.103 23.0937 70.3705 22.8016C70.638 22.5096 70.6181 22.056 70.326 21.7885L69.8417 22.3173L69.3574 22.8461ZM59.5151 18.6649V19.382C59.53 19.382 59.5449 19.3815 59.5598 19.3806L59.5151 18.6649ZM34.9728 18.6649L34.9283 19.3806C34.9431 19.3815 34.9579 19.382 34.9728 19.382V18.6649ZM24.6198 22.3173L24.1355 21.7885C24.12 21.8027 24.1052 21.8175 24.091 21.833L24.6198 22.3173ZM20.9674 32.6702H21.6844C21.6844 32.6554 21.684 32.6406 21.6831 32.6258L20.9674 32.6702ZM20.9674 57.2123L21.6831 57.2567C21.684 57.2419 21.6844 57.2271 21.6844 57.2123H20.9674ZM24.6198 67.5652L24.091 68.0495C24.1052 68.0649 24.12 68.0798 24.1355 68.0939L24.6198 67.5652ZM34.9728 71.2176V70.5005C34.9579 70.5005 34.9431 70.501 34.9283 70.5019L34.9728 71.2176ZM59.5151 71.2176L59.5598 70.5019C59.5449 70.501 59.53 70.5005 59.5151 70.5005V71.2176ZM69.868 67.5652L70.3523 68.0939C70.3687 68.079 70.3844 68.0632 70.3993 68.0468L69.868 67.5652ZM73.5205 57.2123H72.8034C72.8034 57.2271 72.8038 57.2419 72.8048 57.2567L73.5205 57.2123ZM73.5205 32.6702L72.8045 32.6307C72.8038 32.6438 72.8034 32.657 72.8034 32.6702H73.5205ZM70.3705 21.833C70.103 21.541 69.6495 21.5211 69.3574 21.7885C69.0654 22.056 69.0455 22.5096 69.3129 22.8016L69.8417 22.3173L70.3705 21.833ZM69.8417 22.3173L70.326 21.7885C67.3708 19.0819 63.4486 17.7006 59.4703 17.9492L59.5151 18.6649L59.5598 19.3806C63.1492 19.1562 66.6895 20.4026 69.3574 22.8461L69.8417 22.3173ZM59.5151 18.6649V17.9478H34.9728V18.6649V19.382H59.5151V18.6649ZM34.9728 18.6649L35.0172 17.9492C31.0136 17.7007 27.0912 19.0814 24.1355 21.7885L24.6198 22.3173L25.1041 22.8461C27.7716 20.4031 31.3118 19.1561 34.9283 19.3806L34.9728 18.6649ZM24.6198 22.3173L24.091 21.833C21.3839 24.7887 20.0032 28.711 20.2517 32.7146L20.9674 32.6702L21.6831 32.6258C21.4586 29.0092 22.7055 25.469 25.1486 22.8016L24.6198 22.3173ZM20.9674 32.6702H20.2503V57.2123H20.9674H21.6844V32.6702H20.9674ZM20.9674 57.2123L20.2517 57.1679C20.0032 61.1714 21.3839 65.0938 24.091 68.0495L24.6198 67.5652L25.1486 67.0808C22.7055 64.4134 21.4586 60.8733 21.6831 57.2567L20.9674 57.2123ZM24.6198 67.5652L24.1355 68.0939C27.0912 70.8011 31.0136 72.1817 35.0172 71.9333L34.9728 71.2176L34.9283 70.5019C31.3118 70.7264 27.7716 69.4794 25.1041 67.0364L24.6198 67.5652ZM34.9728 71.2176V71.9346H59.5151V71.2176V70.5005H34.9728V71.2176ZM59.5151 71.2176L59.4703 71.9332C63.4474 72.1818 67.3962 70.8014 70.3523 68.0939L69.868 67.5652L69.3837 67.0364C66.7166 69.4791 63.1504 70.7263 59.5598 70.5019L59.5151 71.2176ZM69.868 67.5652L70.3993 68.0468C73.0756 65.0946 74.4848 61.1745 74.2361 57.1679L73.5205 57.2123L72.8048 57.2567C73.0291 60.8702 71.7581 64.4126 69.3368 67.0835L69.868 67.5652ZM73.5205 57.2123H74.2375V32.6702H73.5205H72.8034V57.2123H73.5205ZM73.5205 32.6702L74.2364 32.7097C74.4571 28.7096 73.0777 24.7888 70.3705 21.833L69.8417 22.3173L69.3129 22.8016C71.7559 25.469 73.0042 29.0107 72.8045 32.6307L73.5205 32.6702Z" fill="url(#paint1_linear_550_2274)" mask="url(#path-3-outside-1_550_2274)"/>
</g>
<foreignObject x="23.0068" y="18.6965" width="51.1979" height="51.1384"><div xmlns="http://www.w3.org/1999/xhtml" style="backdrop-filter:blur(5.38px);clip-path:url(#bgblur_1_550_2274_clip_path);height:100%;width:100%"></div></foreignObject><g filter="url(#filter2_d_550_2274)" data-figma-bg-blur-radius="10.7559">
<mask id="path-5-inside-2_550_2274" fill="white">
<path d="M62.2465 39.9499L44.5624 57.6864C43.6427 58.5798 42.434 59.079 41.1727 59.079H34.9977C34.6561 59.079 34.3408 58.9477 34.1043 58.7112C33.8678 58.4747 33.7627 58.1594 33.7627 57.8178L33.9204 51.5903C33.9466 50.3553 34.4459 49.1991 35.313 48.332L47.8469 35.7982C48.0571 35.588 48.425 35.588 48.6352 35.7982L53.0234 40.1601C53.3124 40.4491 53.7329 40.6331 54.1796 40.6331C55.1518 40.6331 55.9138 39.8448 55.9138 38.8988C55.9138 38.4258 55.7299 38.0054 55.4408 37.6901C55.362 37.585 51.184 33.4333 51.184 33.4333C50.9213 33.1706 50.9213 32.7239 51.184 32.4611L52.9446 30.6743C54.5737 29.0452 57.2014 29.0452 58.8305 30.6743L62.2465 34.0903C63.8493 35.6931 63.8493 38.3207 62.2465 39.9499Z"/>
</mask>
<path d="M62.2465 39.9499L44.5624 57.6864C43.6427 58.5798 42.434 59.079 41.1727 59.079H34.9977C34.6561 59.079 34.3408 58.9477 34.1043 58.7112C33.8678 58.4747 33.7627 58.1594 33.7627 57.8178L33.9204 51.5903C33.9466 50.3553 34.4459 49.1991 35.313 48.332L47.8469 35.7982C48.0571 35.588 48.425 35.588 48.6352 35.7982L53.0234 40.1601C53.3124 40.4491 53.7329 40.6331 54.1796 40.6331C55.1518 40.6331 55.9138 39.8448 55.9138 38.8988C55.9138 38.4258 55.7299 38.0054 55.4408 37.6901C55.362 37.585 51.184 33.4333 51.184 33.4333C50.9213 33.1706 50.9213 32.7239 51.184 32.4611L52.9446 30.6743C54.5737 29.0452 57.2014 29.0452 58.8305 30.6743L62.2465 34.0903C63.8493 35.6931 63.8493 38.3207 62.2465 39.9499Z" fill="url(#paint2_linear_550_2274)"/>
<path d="M44.5624 57.6864L44.6623 57.7893L44.6639 57.7876L44.5624 57.6864ZM33.7627 57.8178L33.6193 57.8141V57.8178H33.7627ZM33.9204 51.5903L34.0637 51.5939L34.0637 51.5933L33.9204 51.5903ZM35.313 48.332L35.4144 48.4334V48.4334L35.313 48.332ZM47.8469 35.7982L47.7455 35.6968V35.6968L47.8469 35.7982ZM48.6352 35.7982L48.5338 35.8996L48.5341 35.8999L48.6352 35.7982ZM53.0234 40.1601L53.1248 40.0587L53.1245 40.0584L53.0234 40.1601ZM55.4408 37.6901L55.3255 37.7766L55.3351 37.787L55.4408 37.6901ZM51.184 33.4333L51.0826 33.5348L51.083 33.5351L51.184 33.4333ZM51.184 32.4611L51.2854 32.5625L51.2862 32.5618L51.184 32.4611ZM52.9446 30.6743L52.8432 30.5729L52.8424 30.5737L52.9446 30.6743ZM58.8305 30.6743L58.7291 30.7757L58.8305 30.6743ZM62.2465 34.0903L62.3479 33.9888V33.9888L62.2465 34.0903ZM62.2465 39.9499L62.1449 39.8486L44.4608 57.5851L44.5624 57.6864L44.6639 57.7876L62.348 40.0511L62.2465 39.9499ZM44.5624 57.6864L44.4624 57.5835C43.5688 58.4516 42.3956 58.9356 41.1727 58.9356V59.079V59.2225C42.4723 59.2225 43.7166 58.708 44.6623 57.7893L44.5624 57.6864ZM41.1727 59.079V58.9356H34.9977V59.079V59.2225H41.1727V59.079ZM34.9977 59.079V58.9356C34.6939 58.9356 34.4151 58.8192 34.2057 58.6098L34.1043 58.7112L34.0029 58.8126C34.2664 59.0761 34.6183 59.2225 34.9977 59.2225V59.079ZM34.1043 58.7112L34.2057 58.6098C34.0015 58.4056 33.9061 58.1297 33.9061 57.8178H33.7627H33.6193C33.6193 58.189 33.7341 58.5438 34.0029 58.8126L34.1043 58.7112ZM33.7627 57.8178L33.9061 57.8214L34.0637 51.5939L33.9204 51.5903L33.777 51.5867L33.6193 57.8141L33.7627 57.8178ZM33.9204 51.5903L34.0637 51.5933C34.0892 50.3956 34.5732 49.2746 35.4144 48.4334L35.313 48.332L35.2116 48.2306C34.3186 49.1237 33.804 50.315 33.777 51.5872L33.9204 51.5903ZM35.313 48.332L35.4144 48.4334L47.9483 35.8996L47.8469 35.7982L47.7455 35.6968L35.2116 48.2306L35.313 48.332ZM47.8469 35.7982L47.9483 35.8996C48.1025 35.7454 48.3796 35.7454 48.5338 35.8996L48.6352 35.7982L48.7366 35.6968C48.4704 35.4306 48.0117 35.4306 47.7455 35.6968L47.8469 35.7982ZM48.6352 35.7982L48.5341 35.8999L52.9223 40.2618L53.0234 40.1601L53.1245 40.0584L48.7363 35.6965L48.6352 35.7982ZM53.0234 40.1601L52.922 40.2615C53.2376 40.5771 53.6944 40.7765 54.1796 40.7765V40.6331V40.4896C53.7713 40.4896 53.3873 40.3211 53.1248 40.0587L53.0234 40.1601ZM54.1796 40.6331V40.7765C55.2324 40.7765 56.0572 39.9226 56.0572 38.8988H55.9138H55.7704C55.7704 39.767 55.0712 40.4896 54.1796 40.4896V40.6331ZM55.9138 38.8988H56.0572C56.0572 38.3875 55.8581 37.9331 55.5466 37.5932L55.4408 37.6901L55.3351 37.787C55.6017 38.0778 55.7704 38.4642 55.7704 38.8988H55.9138ZM55.4408 37.6901L55.5556 37.6041C55.5438 37.5883 55.514 37.5572 55.4832 37.5254C55.4478 37.4887 55.3984 37.4383 55.3374 37.3764C55.2154 37.2525 55.0455 37.0814 54.844 36.8794C54.4411 36.4752 53.9113 35.9463 53.3841 35.4207C52.8569 34.8952 52.3322 34.3729 51.9392 33.982C51.7427 33.7866 51.5792 33.624 51.4648 33.5102C51.4076 33.4534 51.3627 33.4087 51.3321 33.3783C51.3168 33.3631 51.305 33.3514 51.2971 33.3435C51.2932 33.3396 51.2902 33.3366 51.2882 33.3346C51.2872 33.3336 51.2864 33.3329 51.2859 33.3324C51.2856 33.3321 51.2854 33.3319 51.2853 33.3318C51.2853 33.3317 51.2852 33.3317 51.2852 33.3317C51.2851 33.3316 51.2851 33.3316 51.184 33.4333C51.083 33.5351 51.083 33.5351 51.083 33.5351C51.083 33.5352 51.0831 33.5352 51.0831 33.5353C51.0833 33.5354 51.0835 33.5356 51.0837 33.5358C51.0842 33.5363 51.085 33.5371 51.086 33.5381C51.088 33.5401 51.091 33.5431 51.0949 33.547C51.1028 33.5548 51.1146 33.5665 51.1299 33.5817C51.1605 33.6121 51.2054 33.6568 51.2626 33.7136C51.377 33.8274 51.5405 33.9899 51.7369 34.1854C52.1298 34.5762 52.6545 35.0984 53.1816 35.6239C53.7088 36.1494 54.2383 36.6781 54.6409 37.0819C54.8422 37.2839 55.0117 37.4544 55.1331 37.5777C55.1939 37.6394 55.2424 37.6889 55.2769 37.7246C55.316 37.7651 55.3281 37.7788 55.3261 37.7762L55.4408 37.6901ZM51.184 33.4333L51.2854 33.3319C51.0787 33.1252 51.0787 32.7693 51.2854 32.5625L51.184 32.4611L51.0826 32.3597C50.7639 32.6785 50.7639 33.216 51.0826 33.5348L51.184 33.4333ZM51.184 32.4611L51.2862 32.5618L53.0467 30.775L52.9446 30.6743L52.8424 30.5737L51.0819 32.3605L51.184 32.4611ZM52.9446 30.6743L53.046 30.7757C54.6191 29.2026 57.156 29.2026 58.7291 30.7757L58.8305 30.6743L58.9319 30.5729C57.2468 28.8878 54.5283 28.8878 52.8432 30.5729L52.9446 30.6743ZM58.8305 30.6743L58.7291 30.7757L62.1451 34.1917L62.2465 34.0903L62.3479 33.9888L58.9319 30.5729L58.8305 30.6743ZM62.2465 34.0903L62.1451 34.1917C63.6915 35.7381 63.6926 38.2755 62.1442 39.8493L62.2465 39.9499L62.3487 40.0505C64.006 38.366 64.0072 35.6482 62.3479 33.9888L62.2465 34.0903Z" fill="url(#paint3_linear_550_2274)" fill-opacity="0.5" mask="url(#path-5-inside-2_550_2274)"/>
</g>
<defs>
<filter id="filter0_f_550_2274" x="9.72748e-05" y="5.72205e-06" width="66.928" height="66.0488" filterUnits="userSpaceOnUse" color-interpolation-filters="sRGB">
<feFlood flood-opacity="0" result="BackgroundImageFix"/>
<feBlend mode="normal" in="SourceGraphic" in2="BackgroundImageFix" result="shape"/>
<feGaussianBlur stdDeviation="6.45356" result="effect1_foregroundBlur_550_2274"/>
</filter>
<clipPath id="bgblur_0_550_2274_clip_path" transform="translate(-3.01364 -0.711149)"><path d="M69.8417 22.3173C67.0301 19.7422 63.2989 18.4284 59.5151 18.6649H34.9728C31.1627 18.4284 27.4314 19.7422 24.6198 22.3173C22.0447 25.1289 20.7309 28.8601 20.9674 32.6702V57.2123C20.7309 61.0224 22.0447 64.7536 24.6198 67.5652C27.4314 70.1402 31.1627 71.4541 34.9728 71.2176H59.5151C63.2989 71.4541 67.0564 70.1402 69.868 67.5652C72.4168 64.7536 73.7569 61.0224 73.5205 57.2123V32.6702C73.7307 28.8601 72.4168 25.1289 69.8417 22.3173Z"/>
</clipPath><filter id="filter2_d_550_2274" x="23.0068" y="18.6965" width="51.1979" height="51.1384" filterUnits="userSpaceOnUse" color-interpolation-filters="sRGB">
<feFlood flood-opacity="0" result="BackgroundImageFix"/>
<feColorMatrix in="SourceAlpha" type="matrix" values="0 0 0 0 0 0 0 0 0 0 0 0 0 0 0 0 0 0 127 0" result="hardAlpha"/>
<feOffset dx="3.58531" dy="3.58531"/>
<feGaussianBlur stdDeviation="3.58531"/>
<feColorMatrix type="matrix" values="0 0 0 0 0.454902 0 0 0 0 0.870588 0 0 0 0 0.376471 0 0 0 0.5 0"/>
<feBlend mode="normal" in2="BackgroundImageFix" result="effect1_dropShadow_550_2274"/>
<feBlend mode="normal" in="SourceGraphic" in2="effect1_dropShadow_550_2274" result="shape"/>
</filter>
<clipPath id="bgblur_1_550_2274_clip_path" transform="translate(-23.0068 -18.6965)"><path d="M62.2465 39.9499L44.5624 57.6864C43.6427 58.5798 42.434 59.079 41.1727 59.079H34.9977C34.6561 59.079 34.3408 58.9477 34.1043 58.7112C33.8678 58.4747 33.7627 58.1594 33.7627 57.8178L33.9204 51.5903C33.9466 50.3553 34.4459 49.1991 35.313 48.332L47.8469 35.7982C48.0571 35.588 48.425 35.588 48.6352 35.7982L53.0234 40.1601C53.3124 40.4491 53.7329 40.6331 54.1796 40.6331C55.1518 40.6331 55.9138 39.8448 55.9138 38.8988C55.9138 38.4258 55.7299 38.0054 55.4408 37.6901C55.362 37.585 51.184 33.4333 51.184 33.4333C50.9213 33.1706 50.9213 32.7239 51.184 32.4611L52.9446 30.6743C54.5737 29.0452 57.2014 29.0452 58.8305 30.6743L62.2465 34.0903C63.8493 35.6931 63.8493 38.3207 62.2465 39.9499Z"/>
</clipPath><linearGradient id="paint0_linear_550_2274" x1="50.2965" y1="3.17747" x2="27.6637" y2="50.5612" gradientUnits="userSpaceOnUse">
<stop stop-color="#9BF763"/>
<stop offset="1" stop-color="#26AB5B"/>
</linearGradient>
<linearGradient id="paint1_linear_550_2274" x1="29.3144" y1="24.7665" x2="62.8721" y2="66.3285" gradientUnits="userSpaceOnUse">
<stop stop-color="white" stop-opacity="0.25"/>
<stop offset="1" stop-color="white" stop-opacity="0"/>
</linearGradient>
<linearGradient id="paint2_linear_550_2274" x1="61.3439" y1="34.8024" x2="28.2767" y2="35.8827" gradientUnits="userSpaceOnUse">
<stop stop-color="white"/>
<stop offset="1" stop-color="white" stop-opacity="0.2"/>
</linearGradient>
<linearGradient id="paint3_linear_550_2274" x1="36.9605" y1="39.3908" x2="62.168" y2="39.5302" gradientUnits="userSpaceOnUse">
<stop stop-color="white"/>
<stop offset="1" stop-color="white" stop-opacity="0"/>
</linearGradient>
</defs>
</svg>
